HIERARCHY
ROOT Hips
{
	OFFSET -8.665500 -1.496397 44.816700
	CHANNELS 6 Xposition Yposition Zposition Zrotation Xrotation Yrotation
	JOINT Chest
	{
		OFFSET -0.698600 0.806100 5.350899
		CHANNELS 6 Xposition Yposition Zposition Zrotation Xrotation Yrotation
		JOINT Chest2
		{
			OFFSET 0.000000 0.000000 4.409100
			CHANNELS 6 Xposition Yposition Zposition Zrotation Xrotation Yrotation
			JOINT Neck
			{
				OFFSET 0.000000 0.000001 10.248299
				CHANNELS 6 Xposition Yposition Zposition Zrotation Xrotation Yrotation
				JOINT Head
				{
					OFFSET 0.000000 0.000000 2.173897
					CHANNELS 6 Xposition Yposition Zposition Zrotation Xrotation Yrotation
					End Site
					{
						OFFSET 0.000000 0.000001 9.966400
					}
				}
			}
			JOINT LeftCollar
			{
				OFFSET 2.100600 -0.520900 6.016098
				CHANNELS 6 Xposition Yposition Zposition Zrotation Xrotation Yrotation
				JOINT LeftShoulder
				{
					OFFSET 5.536700 0.000000 0.000000
					CHANNELS 6 Xposition Yposition Zposition Zrotation Xrotation Yrotation
					JOINT LeftElbow
					{
						OFFSET 0.000000 -0.000001 -12.362099
						CHANNELS 6 Xposition Yposition Zposition Zrotation Xrotation Yrotation
						JOINT LeftWrist
						{
							OFFSET 0.000000 -0.000001 -10.273201
							CHANNELS 6 Xposition Yposition Zposition Zrotation Xrotation Yrotation
							End Site
							{
								OFFSET 0.000000 -0.000000 -2.173901
							}
						}
					}
				}
			}
			JOINT RightCollar
			{
				OFFSET -2.899500 -1.655900 6.981701
				CHANNELS 6 Xposition Yposition Zposition Zrotation Xrotation Yrotation
				JOINT RightShoulder
				{
					OFFSET -4.387501 0.000000 0.000000
					CHANNELS 6 Xposition Yposition Zposition Zrotation Xrotation Yrotation
					JOINT RightElbow
					{
						OFFSET 0.000000 -0.000001 -10.858101
						CHANNELS 6 Xposition Yposition Zposition Zrotation Xrotation Yrotation
						JOINT RightWrist
						{
							OFFSET 0.000000 -0.000001 -12.079601
							CHANNELS 6 Xposition Yposition Zposition Zrotation Xrotation Yrotation
							End Site
							{
								OFFSET 0.000000 0.000000 -2.173901
							}
						}
					}
				}
			}
		}
	}
	JOINT LeftHip
	{
		OFFSET 2.190800 0.073900 -2.522499
		CHANNELS 6 Xposition Yposition Zposition Zrotation Xrotation Yrotation
		JOINT LeftKnee
		{
			OFFSET 0.000000 -0.000002 -20.305000
			CHANNELS 6 Xposition Yposition Zposition Zrotation Xrotation Yrotation
			JOINT LeftAnkle
			{
				OFFSET 0.000000 -0.000001 -16.771700
				CHANNELS 6 Xposition Yposition Zposition Zrotation Xrotation Yrotation
				End Site
				{
					OFFSET 0.000000 -8.738000 0.000001
				}
			}
		}
	}
	JOINT RightHip
	{
		OFFSET -2.029500 0.054300 -2.705200
		CHANNELS 6 Xposition Yposition Zposition Zrotation Xrotation Yrotation
		JOINT RightKnee
		{
			OFFSET 0.000000 -0.000002 -20.030399
			CHANNELS 6 Xposition Yposition Zposition Zrotation Xrotation Yrotation
			JOINT RightAnkle
			{
				OFFSET 0.000000 -0.000001 -17.032700
				CHANNELS 6 Xposition Yposition Zposition Zrotation Xrotation Yrotation
				End Site
				{
					OFFSET 0.000000 -8.823600 0.000001
				}
			}
		}
	}
}
MOTION
Frames: 5
Frame Time: 0.041667
7.323806 22.910698 45.251396 2766.470315 14.477892 37.249584 -0.698597 0.806100 5.350895 1.584627 -5.247838 -13.690476 -0.000003 0.000000 4.409099 -2.066277 -0.831265 -0.027091 0.000001 0.000002 10.248304 41.427662 -10.230522 -17.349247 -0.000002 -0.000002 2.173897 2.314401 1.050135 2.619972 2.100601 -0.520900 6.016106 3.989072 -0.643429 -12.044377 5.536692 -0.000001 0.000003 331.529459 -8.486627 -100.671360 -0.000005 0.000004 -12.362104 -0.428900 -121.169591 14.158423 0.000001 0.000001 -10.273205 2411.380036 174.730418 -231.241573 -2.899499 -1.655900 6.981705 -13.286665 -17.708717 18.283877 -4.387503 -0.000002 -0.000001 -336.204232 -442.057192 480.226448 0.000001 -0.000006 -10.858104 136.176610 -164.516963 163.032135 -0.000001 -0.000002 -12.079591 364.692377 1.519674 13.136753 2.190805 0.073896 -2.522510 -432.946731 -145.668401 -129.587909 -0.000006 -0.000003 -20.305004 -892.063905 9.678003 64.142293 -0.000001 0.000004 -16.771708 1522.133775 -2.389303 44.669089 -2.029500 0.054300 -2.705204 -181.018086 0.328004 -74.008105 0.000000 -0.000004 -20.030394 -108.703212 -34.362262 -96.986535 0.000003 -0.000001 -17.032696 231.959071 -7.306057 -51.357384
7.323404 22.959297 45.236698 2767.255186 14.666539 37.280757 -0.698602 0.806100 5.350901 1.703338 -5.790783 -13.419994 0.000002 0.000001 4.409102 -2.193154 -0.782536 -0.011454 0.000003 0.000000 10.248300 41.549895 -10.267849 -17.485908 0.000000 -0.000001 2.173895 2.187439 1.129197 2.512620 2.100602 -0.520902 6.016101 3.688058 0.136373 -11.725992 5.536689 0.000003 0.000008 331.805399 -8.971121 -101.379740 0.000005 0.000004 -12.362101 -0.620411 -121.129676 13.939199 -0.000008 -0.000003 -10.273200 2411.230318 174.612762 -230.879191 -2.899499 -1.655900 6.981705 -13.876535 -16.667823 17.203283 -4.387499 0.000003 -0.000004 -329.831119 -442.044761 486.371870 0.000000 -0.000006 -10.858106 135.608215 -164.532973 163.024745 -0.000002 -0.000002 -12.079601 364.701830 1.772993 12.946785 2.190798 0.073897 -2.522501 -432.061484 -145.969489 -128.990472 -0.000007 -0.000000 -20.305006 -894.332949 6.800735 64.150107 -0.000001 0.000002 -16.771704 1523.905034 -2.640370 45.922517 -2.029509 0.054300 -2.705200 -181.144472 0.761419 -74.100743 0.000009 -0.000002 -20.030396 -108.690740 -36.543247 -96.628926 0.000001 0.000001 -17.032696 229.912992 -7.073374 -51.837738
7.317405 22.995499 45.219997 2767.922031 14.983581 37.346798 -0.698601 0.806098 5.350900 1.629711 -6.494816 -13.209296 -0.000001 0.000001 4.409103 -2.163865 -0.741803 -0.003312 0.000003 0.000001 10.248300 41.545503 -10.252461 -17.577919 -0.000001 -0.000001 2.173897 2.143877 1.256999 2.484600 2.100603 -0.520899 6.016097 3.493834 0.497300 -11.518728 5.536689 -0.000000 0.000001 332.036778 -9.245452 -101.701606 -0.000001 0.000004 -12.362108 -0.855942 -121.143582 13.736533 -0.000001 0.000001 -10.273199 2410.807612 174.860752 -230.688382 -2.899501 -1.655899 6.981697 -14.141461 -15.907575 16.624675 -4.387501 0.000002 0.000001 -322.012492 -442.492521 494.080476 -0.000000 -0.000002 -10.858106 135.999967 -164.668730 163.096789 0.000001 -0.000000 -12.079610 364.895944 1.881731 12.415144 2.190800 0.073896 -2.522501 -431.536543 -146.030086 -128.500447 -0.000010 -0.000002 -20.305004 -895.367750 5.282498 64.084175 -0.000001 0.000005 -16.771706 1524.631329 -2.755330 46.472518 -2.029502 0.054298 -2.705201 -181.288766 1.511598 -74.207956 0.000001 -0.000003 -20.030394 -108.463035 -37.382233 -96.379891 -0.000003 -0.000001 -17.032696 228.937300 -6.807089 -51.937803
7.300405 23.031301 45.210098 2768.748429 15.040391 37.426045 -0.698603 0.806102 5.350899 1.433390 -6.783802 -13.181046 0.000001 -0.000001 4.409101 -1.994478 -0.778911 -0.004615 0.000000 -0.000002 10.248300 41.782306 -10.186586 -17.501593 0.000001 -0.000001 2.173895 2.070233 1.288899 2.173868 2.100597 -0.520903 6.016100 3.378249 0.629676 -11.273728 5.536692 0.000004 0.000001 332.238214 -9.332875 -101.779866 0.000007 0.000005 -12.362103 -0.929249 -121.187541 13.618742 0.000002 0.000000 -10.273202 2410.394522 174.763627 -230.363156 -2.899500 -1.655903 6.981699 -14.172203 -15.004823 16.312351 -4.387503 -0.000001 0.000001 -315.268473 -442.859521 500.938751 0.000003 0.000001 -10.858101 136.308159 -164.694548 163.163056 0.000002 -0.000001 -12.079603 365.044515 1.997993 11.565838 2.190796 0.073902 -2.522501 -431.730602 -145.716144 -128.629059 -0.000007 -0.000001 -20.305000 -896.143441 3.988983 64.004706 -0.000001 0.000003 -16.771708 1525.467891 -2.808377 47.044308 -2.029505 0.054302 -2.705198 -181.436394 2.127330 -74.212232 -0.000002 -0.000003 -20.030392 -107.894442 -38.761156 -96.080271 0.000001 -0.000000 -17.032700 227.562219 -6.653459 -52.280023
7.283605 23.062000 45.204597 2769.274955 15.428521 37.390597 -0.698598 0.806103 5.350902 1.358221 -7.643201 -12.808004 -0.000002 -0.000000 4.409104 -1.830083 -0.676890 0.007688 0.000001 0.000001 10.248300 41.715531 -10.114504 -17.444923 -0.000001 -0.000003 2.173897 2.266949 1.240728 1.801052 2.100600 -0.520900 6.016101 3.114505 0.956000 -11.337933 5.536692 0.000001 0.000001 332.541885 -9.590503 -101.729213 0.000003 0.000005 -12.362103 -0.794652 -121.223208 13.578635 -0.000003 0.000001 -10.273200 2409.704072 174.841873 -229.372724 -2.899501 -1.655901 6.981700 -14.101514 -14.063525 16.112558 -4.387501 0.000001 -0.000008 -310.051574 -443.259005 506.537866 -0.000001 -0.000002 -10.858102 136.621378 -164.611165 163.160092 0.000001 -0.000002 -12.079602 365.096888 1.976388 11.038537 2.190800 0.073899 -2.522497 -432.059954 -145.663729 -128.468140 -0.000008 -0.000001 -20.305010 -896.705046 3.194066 64.018127 -0.000002 0.000004 -16.771704 1526.108836 -2.882970 47.449218 -2.029504 0.054302 -2.705201 -181.415329 3.040804 -74.366348 0.000003 -0.000006 -20.030390 -107.536131 -37.564213 -96.125753 -0.000003 0.000002 -17.032696 228.420404 -6.660326 -51.843079
